<?xml version="1.0" standalone="no"?>
<!DOCTYPE svg PUBLIC "-//W3C//DTD SVG 20010904//EN"
 "http://www.w3.org/TR/2001/REC-SVG-20010904/DTD/svg10.dtd">
<svg version="1.0" xmlns="http://www.w3.org/2000/svg"
 width="140.000000pt" height="140.000000pt" viewBox="0 0 140.000000 140.000000"
 preserveAspectRatio="xMidYMid meet">

<g transform="translate(0.000000,140.000000) scale(0.100000,-0.100000)"
fill="#000000" stroke="none">
<path d="M0 700 l0 -700 40 0 c22 0 40 4 40 9 0 18 105 60 155 63 47 3 50 2
50 -22 0 -14 4 -31 8 -37 10 -16 38 -17 34 -1 -3 17 34 23 44 6 7 -11 11 -10
19 2 17 26 12 50 -10 50 -27 0 -92 27 -101 42 -10 16 35 60 64 63 36 4 37 4
37 16 0 6 -9 8 -20 4 -17 -5 -20 -2 -20 21 0 20 3 24 13 16 7 -6 19 -7 26 -3
8 6 2 10 -19 15 -18 3 -36 3 -41 0 -5 -3 -9 -3 -9 1 0 3 10 10 23 15 14 6 16
9 6 9 -9 1 -21 12 -27 26 -19 41 -15 53 13 47 14 -2 25 -11 25 -18 0 -8 4 -14
9 -14 6 0 9 9 8 20 -1 11 -5 20 -9 20 -4 0 -8 16 -8 36 0 24 4 34 13 32 8 -3
14 -34 17 -89 4 -60 7 -78 13 -61 5 12 13 20 18 17 5 -4 9 -2 9 4 0 5 -5 11
-11 13 -6 2 -13 31 -16 65 -5 54 -3 62 13 66 12 3 14 5 4 6 -8 1 -20 12 -26
25 -10 21 -9 24 7 23 13 -1 17 -7 13 -19 -3 -10 0 -18 5 -18 7 0 10 21 9 55
-2 50 -5 55 -25 55 -12 0 -25 5 -28 10 -3 6 0 10 7 10 11 0 10 2 0 9 -10 6 -8
10 8 14 22 6 19 27 -3 27 -8 0 -11 16 -8 51 3 55 -12 86 -29 59 -5 -8 -10 -29
-10 -47 0 -24 -4 -31 -17 -29 -15 3 -18 15 -19 87 -1 95 2 105 22 88 16 -13
15 -14 34 26 8 17 16 33 18 37 2 3 -5 8 -15 11 -17 4 -17 5 0 6 9 0 17 5 17
11 0 23 44 50 82 48 47 -2 64 -24 46 -63 -11 -24 -7 -56 17 -130 6 -20 -26
-71 -37 -59 -10 9 -24 -176 -19 -241 0 -5 2 -49 4 -97 2 -80 1 -86 -15 -77
-23 12 -23 -3 -3 -62 10 -29 12 -45 5 -47 -24 -8 4 -22 44 -22 29 0 48 6 59
18 21 23 22 52 2 52 -8 0 -15 2 -15 5 0 8 40 46 40 38 0 -5 5 -1 10 7 7 11 10
0 10 -37 0 -45 -4 -56 -35 -89 -38 -40 -43 -54 -21 -54 23 0 46 -41 46 -82 l0
-38 405 0 405 0 0 186 0 187 -41 -7 c-57 -9 -95 10 -118 59 -10 22 -17 43 -15
47 3 4 24 0 48 -9 25 -10 53 -13 69 -9 33 8 35 23 5 28 -13 2 -24 11 -26 20
-3 15 4 18 39 18 44 0 49 9 8 13 -56 6 -130 47 -84 47 20 0 85 32 85 42 0 4
-8 8 -17 8 -10 0 -27 14 -38 30 -11 16 -25 30 -32 30 -22 0 -24 19 -3 40 13
13 19 28 15 37 -3 9 0 20 7 24 7 4 9 11 5 15 -8 8 -49 -31 -66 -63 -6 -12 -11
-32 -11 -45 0 -28 -17 -48 -42 -48 -20 0 -68 48 -68 70 -1 8 -9 33 -20 55 -11
22 -19 46 -20 53 0 6 -4 12 -10 12 -6 0 -10 27 -10 60 0 64 10 76 28 35 6 -14
18 -25 27 -25 8 0 15 -8 15 -17 1 -43 62 -78 108 -62 19 6 37 6 55 0 25 -10
28 -8 47 36 11 25 20 49 20 54 0 11 -55 51 -110 79 -25 13 -57 29 -71 37 -20
10 -34 11 -54 3 -14 -5 -29 -10 -31 -10 -9 0 8 45 20 52 6 4 11 41 12 84 1 44
7 80 14 84 7 4 8 21 5 46 -6 38 -6 39 37 57 50 20 62 21 86 6 13 -8 28 -5 67
15 l50 25 -243 1 c-203 0 -246 -2 -258 -15 -9 -8 -20 -15 -27 -15 -6 0 -2 7 9
15 17 13 -10 14 -239 15 -254 0 -258 0 -247 -20 6 -11 34 -37 63 -59 79 -59
155 -90 262 -106 22 -3 63 -12 90 -19 53 -15 161 -38 170 -36 9 1 35 -28 35
-40 0 -6 -4 -9 -9 -6 -16 10 -258 49 -381 61 -117 12 -142 18 -183 40 -44 25
-106 85 -138 135 l-16 25 -84 -71 c-85 -71 -119 -92 -119 -73 0 6 24 36 53 67
29 31 61 67 71 80 l19 22 -69 0 c-69 0 -69 -1 -98 -40 -35 -47 -43 -46 -22 4
14 34 14 36 -5 36 -19 0 -19 -13 -19 -700z m915 610 c-3 -5 -11 -10 -16 -10
-6 0 -7 5 -4 10 3 6 11 10 16 10 6 0 7 -4 4 -10z m-535 -101 c0 -5 -6 -9 -12
-10 -8 0 -7 -3 2 -6 8 -3 26 -15 40 -26 l25 -19 -25 7 c-14 5 -33 8 -43 7 -9
0 -15 3 -12 8 3 5 -4 12 -16 15 -27 9 -48 -12 -59 -59 -9 -40 0 -48 15 -14 7
15 20 23 43 24 30 2 32 0 31 -29 -1 -31 -1 -31 -9 -7 -7 22 -8 22 -10 5 -1
-11 -2 -25 -1 -31 1 -7 -9 -9 -24 -6 -19 3 -34 -3 -55 -24 -54 -52 -72 -66
-77 -60 -3 3 2 12 11 21 15 16 20 30 17 49 -1 4 4 14 10 22 14 17 11 18 -94
14 l-79 -2 4 28 3 29 85 -3 c46 -1 87 -7 91 -13 3 -6 14 8 23 31 11 29 26 45
48 54 31 14 68 11 68 -5z m640 -166 c0 -8 -7 -30 -16 -49 -9 -19 -14 -43 -11
-54 3 -11 -3 -43 -12 -71 -13 -36 -17 -69 -14 -117 5 -63 4 -68 -18 -77 -14
-6 -28 -24 -34 -42 -6 -22 -15 -33 -27 -33 -20 0 -24 15 -8 25 18 11 4 73 -21
93 -22 18 -22 20 -6 36 33 33 85 122 96 163 7 23 15 45 20 48 5 3 14 27 21 55
11 46 30 61 30 23z m-391 -42 c19 -12 6 -28 -30 -36 -32 -7 -49 4 -49 33 0 14
58 16 79 3z m622 -104 c-16 -16 -26 0 -10 19 9 11 15 12 17 4 2 -6 -1 -17 -7
-23z m-1074 -9 c-3 -8 -6 -5 -6 6 -1 11 2 17 5 13 3 -3 4 -12 1 -19z m417 -73
c5 -32 3 -28 -14 20 -11 33 -19 65 -19 70 1 19 27 -51 33 -90z m210 -71 c8
-21 8 -24 -5 -24 -5 0 -7 5 -4 10 3 6 1 10 -4 10 -6 0 -11 5 -11 10 0 16 17
12 24 -6z m-166 -124 c0 -18 -3 -14 -12 15 -7 22 -10 47 -7 55 6 17 18 -28 19
-70z m-341 -32 c-3 -8 -6 -5 -6 6 -1 11 2 17 5 13 3 -3 4 -12 1 -19z m230
-250 c-3 -8 -6 -5 -6 6 -1 11 2 17 5 13 3 -3 4 -12 1 -19z m-296 -50 c13 -32
13 -32 20 -8 6 22 7 23 14 6 7 -17 -7 -35 -27 -36 -7 0 -38 53 -38 65 0 17 20
0 31 -27z m329 23 c0 -11 -39 -59 -40 -49 0 14 23 58 32 58 4 0 8 -4 8 -9z
m-355 -31 c19 -36 19 -40 -1 -40 -10 0 -14 5 -10 16 3 8 2 13 -3 9 -11 -6 -20
15 -13 33 6 18 10 15 27 -18z m511 -124 c8 -8 10 -17 5 -20 -4 -3 -16 3 -26
14 -21 23 -2 28 21 6z m55 -23 c0 -5 2 -21 4 -38 3 -20 1 -25 -4 -15 -17 30
-22 60 -12 60 6 0 11 -3 12 -7z"/>
<path d="M486 947 c3 -10 9 -15 12 -12 3 3 0 11 -7 18 -10 9 -11 8 -5 -6z"/>
<path d="M430 868 c0 -15 5 -30 10 -33 13 -8 13 25 0 45 -8 12 -10 9 -10 -12z"/>
<path d="M490 90 c-13 -11 -31 -20 -42 -20 -11 0 -18 -7 -17 -17 0 -11 3 -13
6 -5 7 17 23 15 45 -4 24 -22 48 -3 48 37 0 34 -9 36 -40 9z"/>
<path d="M480 10 c0 -5 5 -10 10 -10 6 0 10 5 10 10 0 6 -4 10 -10 10 -5 0
-10 -4 -10 -10z"/>
</g>
</svg>
