<svg enable-background="new 0 0 394.4 79.6" viewBox="0 0 394.4 79.6" xmlns="http://www.w3.org/2000/svg"><path d="m74.6 30.5h42.7v18h-42.7z" fill="#a3195b"/><path d="m37.6 8c-5.3-4.8-13.2-7.2-23.6-7.2h-14v17.5h1.7 9.2c7.8 0 11.7 3.2 11.7 9.6 0 6.5-3.9 9.7-11.7 9.7h-9.2-1.7v17.4h14c10.4 0 18.2-2.4 23.6-7.2 5.3-4.8 8-11.5 8-19.9-.1-8.5-2.7-15.1-8-19.9z" fill="#14e7a4"/><path d="m188.2 8c-5.3-4.8-13.2-7.2-23.6-7.2h-14v17.5h1.7 9.2c7.8 0 11.7 3.2 11.7 9.6 0 6.5-3.9 9.7-11.7 9.7h-9.2-1.7v17.4h14c10.4 0 18.2-2.4 23.6-7.2 5.3-4.8 8-11.5 8-19.9-.1-8.5-2.7-15.2-8-19.9z" fill="#1454cd"/><path d="m222.1 78.9v-78.2h20.4v78.2z" fill="#fda499"/><path d="m74.6.7h42.7v18h-42.7z" fill="#a3195b"/><path d="m331.3 53.1-.3 26.2-57.9-52.2.2-27z" fill="#6e0094"/><path d="m380.8 22.4v.1c-.2.5-.3.9-.3 1.4 0 1.2.3 2.7 1.2 4.5.4.9 1 2 1.7 3.3s1.5 2.7 2.5 4.4c3.1 5.4 5.4 10.1 6.9 14.1s1.9 7.9 1.3 11.9-2.8 7.7-6.5 11.3c-3.6 3.4-7.6 5.4-12 6-3.7.5-7.6 0-11.6-1.5l8.6-22s0 0 0-.1c.2-.4.3-.9.3-1.3 0-1.2-.3-2.7-1-4.4-.5-1.2-1.4-2.9-2.5-5-.4-.8-.9-1.7-1.5-2.6-3.1-5.7-5.4-10.5-6.8-14.2-1.4-3.8-1.9-7.6-1.4-11.4s2.6-7.5 6.3-11c3.4-3.2 7.3-5.2 11.6-5.8 3.7-.5 7.5-.1 11.5 1.4h.1z" fill="#fc3a1d"/><path d="m74.6 60.9h42.7v18h-42.7z" fill="#a3195b"/></svg>